<svg width="400" height="400" xmlns="http://www.w3.org/2000/svg">
  <defs>
    <!-- Light mode gradient definitions for Persian sci-fi motifs -->
    <linearGradient id="copperToTealGradient" x1="0%" y1="0%" x2="100%" y2="100%">
      <stop offset="0%" stop-color="#CD853F" stop-opacity="0.6"/>
      <stop offset="30%" stop-color="#20B2AA" stop-opacity="0.5"/>
      <stop offset="60%" stop-color="#4682B4" stop-opacity="0.4"/>
      <stop offset="100%" stop-color="#D4AF37" stop-opacity="0.5"/>
    </linearGradient>
    
    <radialGradient id="lightCosmicGlow" cx="50%" cy="50%" r="50%">
      <stop offset="0%" stop-color="#87CEEB" stop-opacity="0.4"/>
      <stop offset="50%" stop-color="#DDA0DD" stop-opacity="0.3"/>
      <stop offset="100%" stop-color="#F0E68C" stop-opacity="0.2"/>
    </radialGradient>
    
    <linearGradient id="lightTechLine" x1="0%" y1="0%" x2="100%" y2="0%">
      <stop offset="0%" stop-color="#20B2AA" stop-opacity="0"/>
      <stop offset="50%" stop-color="#20B2AA" stop-opacity="0.5"/>
      <stop offset="100%" stop-color="#20B2AA" stop-opacity="0"/>
    </linearGradient>
    
    <!-- Persian ornament pattern with light sci-fi enhancement -->
    <g id="persianMotif">
      <!-- Central Persian medallion with gentle cosmic elements -->
      <path d="M200,80 Q240,60 280,80 Q300,120 280,160 Q240,180 200,160 Q180,120 200,80 Z" 
            fill="url(#copperToTealGradient)" 
            stroke="url(#lightCosmicGlow)" 
            stroke-width="1" 
            opacity="0.3"/>
      
      <!-- Inner ornamental core -->
      <circle cx="240" cy="120" r="18" fill="url(#lightCosmicGlow)" opacity="0.25"/>
      <circle cx="240" cy="120" r="6" fill="url(#copperToTealGradient)" opacity="0.4"/>
      
      <!-- Flowing Persian curves -->
      <path d="M215,105 Q235,95 255,105 Q270,120 255,135 Q235,145 215,135 Q200,120 215,105" 
            fill="none" 
            stroke="url(#copperToTealGradient)" 
            stroke-width="1.2" 
            opacity="0.4"/>
      
      <!-- Decorative Persian flourishes -->
      <path d="M225,110 Q240,106 255,110 M225,120 Q240,116 255,120 M225,130 Q240,126 255,130" 
            fill="none" 
            stroke="url(#lightCosmicGlow)" 
            stroke-width="0.6" 
            opacity="0.3"/>
      
      <!-- Gentle sci-fi geometric accents -->
      <polygon points="232,115 248,115 244,125 236,125" 
               fill="url(#copperToTealGradient)" 
               opacity="0.25"/>
      
      <!-- Subtle tech circuit lines -->
      <path d="M185,120 L200,120 M280,120 L295,120" 
            stroke="url(#lightTechLine)" 
            stroke-width="0.8" 
            opacity="0.3"/>
      
      <!-- Corner ornaments with soft cosmic touch -->
      <g transform="translate(185,105)">
        <path d="M0,0 Q12,-6 24,0 Q18,12 12,24 Q0,18 -12,12 Q-6,0 0,0" 
              fill="url(#lightCosmicGlow)" 
              opacity="0.2"/>
        <circle cx="12" cy="12" r="1.5" fill="url(#copperToTealGradient)" opacity="0.4"/>
      </g>
      
      <g transform="translate(295,105)">
        <path d="M0,0 Q-12,-6 -24,0 Q-18,12 -12,24 Q0,18 12,12 Q6,0 0,0" 
              fill="url(#lightCosmicGlow)" 
              opacity="0.2"/>
        <circle cx="-12" cy="12" r="1.5" fill="url(#copperToTealGradient)" opacity="0.4"/>
      </g>
      
      <g transform="translate(185,135)">
        <path d="M0,0 Q12,6 24,0 Q18,-12 12,-24 Q0,-18 -12,-12 Q-6,0 0,0" 
              fill="url(#lightCosmicGlow)" 
              opacity="0.2"/>
        <circle cx="12" cy="-12" r="1.5" fill="url(#copperToTealGradient)" opacity="0.4"/>
      </g>
      
      <g transform="translate(295,135)">
        <path d="M0,0 Q-12,6 -24,0 Q-18,-12 -12,-24 Q0,-18 12,-12 Q6,0 0,0" 
              fill="url(#lightCosmicGlow)" 
              opacity="0.2"/>
        <circle cx="-12" cy="-12" r="1.5" fill="url(#copperToTealGradient)" opacity="0.4"/>
      </g>
    </g>
    
    <!-- Smaller connecting motifs -->
    <g id="connector">
      <path d="M60,45 Q100,35 140,45 Q135,60 100,65 Q85,60 60,45" 
            fill="url(#copperToTealGradient)" 
            opacity="0.25"/>
      <circle cx="100" cy="52" r="3" fill="url(#lightCosmicGlow)" opacity="0.4"/>
      <!-- Subtle tech hexagon -->
      <polygon points="92,48 96,46 104,46 108,48 104,50 96,50" 
               fill="url(#lightTechLine)" 
               opacity="0.3"/>
    </g>
    
    <!-- Gentle star field -->
    <g id="stars">
      <circle cx="90" cy="170" r="1" fill="#CD853F" opacity="0.6"/>
      <circle cx="340" cy="190" r="0.8" fill="#20B2AA" opacity="0.5"/>
      <circle cx="270" cy="60" r="0.8" fill="#4682B4" opacity="0.4"/>
      <circle cx="310" cy="340" r="1" fill="#D4AF37" opacity="0.5"/>
      <circle cx="130" cy="310" r="0.8" fill="#87CEEB" opacity="0.6"/>
      <circle cx="70" cy="260" r="0.8" fill="#DDA0DD" opacity="0.4"/>
      <circle cx="370" cy="90" r="0.8" fill="#F0E68C" opacity="0.5"/>
    </g>
    
    <!-- Soft nebula effect -->
    <g id="nebula">
      <ellipse cx="160" cy="290" rx="35" ry="18" 
               fill="url(#lightCosmicGlow)" 
               opacity="0.1" 
               transform="rotate(20 160 290)"/>
      <ellipse cx="310" cy="110" rx="25" ry="12" 
               fill="url(#copperToTealGradient)" 
               opacity="0.08" 
               transform="rotate(-10 310 110)"/>
    </g>
  </defs>
  
  <!-- Transparent background -->
  <rect width="400" height="400" fill="transparent"/>
  
  <!-- Soft nebula background layer -->
  <use href="#nebula"/>
  
  <!-- Main pattern repetition -->
  <use href="#persianMotif" transform="translate(-40,-40)"/>
  <use href="#persianMotif" transform="translate(160,-40)"/>
  <use href="#persianMotif" transform="translate(-40,160)"/>
  <use href="#persianMotif" transform="translate(160,160)"/>
  
  <!-- Connecting elements -->
  <use href="#connector" transform="translate(90,-5)"/>
  <use href="#connector" transform="translate(90,185)"/>
  <use href="#connector" transform="translate(-45,95) rotate(90 100 52)"/>
  <use href="#connector" transform="translate(145,95) rotate(90 100 52)"/>
  
  <!-- Gentle cosmic elements -->
  <use href="#stars"/>
  
  <!-- Subtle tech grid overlay -->
  <g opacity="0.08">
    <path d="M200,0 L200,400" stroke="url(#lightTechLine)" stroke-width="0.4" stroke-dasharray="3,10"/>
    <path d="M0,200 L400,200" stroke="url(#lightTechLine)" stroke-width="0.4" stroke-dasharray="3,10"/>
  </g>
  
  <!-- Light hexagonal tech elements -->
  <g opacity="0.15">
    <polygon points="315,145 323,132 331,145 323,158" fill="url(#copperToTealGradient)"/>
    <polygon points="85,335 93,322 101,335 93,348" fill="url(#lightCosmicGlow)"/>
    <polygon points="355,275 363,262 371,275 363,288" fill="url(#lightTechLine)"/>
  </g>
  
  <!-- Gentle energy streams -->
  <g opacity="0.06">
    <path d="M0,110 Q100,95 200,110 Q300,125 400,110" 
          stroke="url(#copperToTealGradient)" 
          stroke-width="1.5" 
          fill="none"/>
    <path d="M0,290 Q100,275 200,290 Q300,305 400,290" 
          stroke="url(#lightCosmicGlow)" 
          stroke-width="1.5" 
          fill="none"/>
  </g>
</svg>