<svg width="350" height="350" viewBox="0 0 350 350" xmlns="http://www.w3.org/2000/svg">
  <defs>
    <!-- Light Mode Persian Gradients -->
    <linearGradient id="lightCopper" x1="0%" y1="0%" x2="100%" y2="100%">
      <stop offset="0%" stop-color="#d4a377" stop-opacity="0.12"/>
      <stop offset="30%" stop-color="#7fb3d3" stop-opacity="0.08"/>
      <stop offset="70%" stop-color="#e6b87d" stop-opacity="0.10"/>
      <stop offset="100%" stop-color="#5a9fd4" stop-opacity="0.06"/>
    </linearGradient>
    
    <linearGradient id="lightAccent" x1="0%" y1="0%" x2="100%" y2="0%">
      <stop offset="0%" stop-color="#7fb3d3" stop-opacity="0.15"/>
      <stop offset="50%" stop-color="#d4a377" stop-opacity="0.12"/>
      <stop offset="100%" stop-color="#7fb3d3" stop-opacity="0.15"/>
    </linearGradient>
    
    <radialGradient id="lightGlow" cx="50%" cy="50%" r="50%">
      <stop offset="0%" stop-color="#5a9fd4" stop-opacity="0.2"/>
      <stop offset="100%" stop-color="#d4a377" stop-opacity="0.05"/>
    </radialGradient>
  </defs>
  
  <!-- Background -->
  <rect width="350" height="350" fill="none"/>
  
  <!-- Main Persian ornamental motifs -->
  <g fill="url(#lightCopper)">
    <!-- Central medallion -->
    <path d="M175,75 Q150,75 135,90 Q120,105 120,130 Q120,155 135,170 Q150,185 175,185 Q200,185 215,170 Q230,155 230,130 Q230,105 215,90 Q200,75 175,75 Z"/>
    
    <!-- Corner medallions -->
    <path d="M75,175 Q50,175 35,160 Q20,145 20,120 Q20,95 35,80 Q50,65 75,65 Q100,65 115,80 Q130,95 130,120 Q130,145 115,160 Q100,175 75,175 Z"/>
    
    <path d="M275,175 Q300,175 315,160 Q330,145 330,120 Q330,95 315,80 Q300,65 275,65 Q250,65 235,80 Q220,95 220,120 Q220,145 235,160 Q250,175 275,175 Z"/>
    
    <path d="M175,275 Q150,275 135,260 Q120,245 120,220 Q120,195 135,180 Q150,165 175,165 Q200,165 215,180 Q230,195 230,220 Q230,245 215,260 Q200,275 175,275 Z"/>
  </g>
  
  <!-- Delicate connecting flourishes -->
  <g stroke="url(#lightAccent)" stroke-width="1" fill="none">
    <path d="M130,130 Q152,110 175,130 Q198,110 220,130"/>
    <path d="M130,220 Q152,200 175,220 Q198,200 220,220"/>
    <path d="M130,130 Q110,152 130,175 Q110,198 130,220"/>
    <path d="M220,130 Q240,152 220,175 Q240,198 220,220"/>
  </g>
  
  <!-- Subtle stars/particles -->
  <g fill="url(#lightGlow)">
    <circle cx="60" cy="60" r="1.2"/>
    <circle cx="290" cy="60" r="0.8"/>
    <circle cx="60" cy="290" r="1"/>
    <circle cx="290" cy="290" r="1.1"/>
    <circle cx="175" cy="50" r="0.6"/>
    <circle cx="175" cy="300" r="0.9"/>
    <circle cx="50" cy="175" r="0.7"/>
    <circle cx="300" cy="175" r="0.8"/>
  </g>
  
  <!-- Tech circuit accents -->
  <g stroke="url(#lightAccent)" stroke-width="0.5" fill="none" opacity="0.6">
    <line x1="100" y1="100" x2="110" y2="110"/>
    <line x1="250" y1="100" x2="240" y2="110"/>
    <line x1="100" y1="250" x2="110" y2="240"/>
    <line x1="250" y1="250" x2="240" y2="240"/>
  </g>
</svg>