<svg width="350" height="350" viewBox="0 0 350 350" xmlns="http://www.w3.org/2000/svg">
  <defs>
    <!-- Dark Mode Persian Gradients -->
    <linearGradient id="darkGold" x1="0%" y1="0%" x2="100%" y2="100%">
      <stop offset="0%" stop-color="#ffd700" stop-opacity="0.18"/>
      <stop offset="25%" stop-color="#00c9ff" stop-opacity="0.15"/>
      <stop offset="50%" stop-color="#6a11cb" stop-opacity="0.12"/>
      <stop offset="75%" stop-color="#ff6ec7" stop-opacity="0.08"/>
      <stop offset="100%" stop-color="#ffd700" stop-opacity="0.18"/>
    </linearGradient>
    
    <linearGradient id="circuitGlow" x1="0%" y1="0%" x2="100%" y2="0%">
      <stop offset="0%" stop-color="#00c9ff" stop-opacity="0.2"/>
      <stop offset="50%" stop-color="#ffd700" stop-opacity="0.25"/>
      <stop offset="100%" stop-color="#00c9ff" stop-opacity="0.2"/>
    </linearGradient>
    
    <radialGradient id="starGlow" cx="50%" cy="50%" r="50%">
      <stop offset="0%" stop-color="#ffffff" stop-opacity="0.6"/>
      <stop offset="40%" stop-color="#00c9ff" stop-opacity="0.3"/>
      <stop offset="100%" stop-color="#6a11cb" stop-opacity="0.0"/>
    </radialGradient>
    
    <radialGradient id="cosmicGlow" cx="50%" cy="30%" r="70%">
      <stop offset="0%" stop-color="#1a0f2e" stop-opacity="0.4"/>
      <stop offset="60%" stop-color="#2d1b69" stop-opacity="0.2"/>
      <stop offset="100%" stop-color="#0b0612" stop-opacity="0.1"/>
    </radialGradient>
  </defs>
  
  <!-- Background with cosmic overlay -->
  <rect width="350" height="350" fill="url(#cosmicGlow)"/>
  
  <!-- Main Persian ornamental motifs -->
  <g fill="url(#darkGold)">
    <!-- Central elaborate medallion -->
    <path d="M175,75 Q140,75 115,100 Q90,125 90,160 Q90,195 115,220 Q140,245 175,245 Q210,245 235,220 Q260,195 260,160 Q260,125 235,100 Q210,75 175,75 Z"/>
    
    <!-- Ornate corner medallions -->
    <path d="M75,175 Q40,175 15,150 Q-10,125 -10,90 Q-10,55 15,30 Q40,5 75,5 Q110,5 135,30 Q160,55 160,90 Q160,125 135,150 Q110,175 75,175 Z"/>
    
    <path d="M275,175 Q310,175 335,150 Q360,125 360,90 Q360,55 335,30 Q310,5 275,5 Q240,5 215,30 Q190,55 190,90 Q190,125 215,150 Q240,175 275,175 Z"/>
    
    <path d="M175,275 Q140,275 115,250 Q90,225 90,190 Q90,155 115,130 Q140,105 175,105 Q210,105 235,130 Q260,155 260,190 Q260,225 235,250 Q210,275 175,275 Z"/>
    
    <path d="M75,75 Q40,75 15,50 Q-10,25 -10,-10 Q-10,-45 15,-70 Q40,-95 75,-95 Q110,-95 135,-70 Q160,-45 160,-10 Q160,25 135,50 Q110,75 75,75 Z"/>
    
    <path d="M275,75 Q310,75 335,50 Q360,25 360,-10 Q360,-45 335,-70 Q310,-95 275,-95 Q240,-95 215,-70 Q190,-45 190,-10 Q190,25 215,50 Q240,75 275,75 Z"/>
    
    <path d="M75,275 Q40,275 15,250 Q-10,225 -10,190 Q-10,155 15,130 Q40,105 75,105 Q110,105 135,130 Q160,155 160,190 Q160,225 135,250 Q110,275 75,275 Z"/>
    
    <path d="M275,275 Q310,275 335,250 Q360,225 360,190 Q360,155 335,130 Q310,105 275,105 Q240,105 215,130 Q190,155 190,190 Q190,225 215,250 Q240,275 275,275 Z"/>
  </g>
  
  <!-- Sci-fi circuit connecting lines -->
  <g stroke="url(#circuitGlow)" stroke-width="0.8" fill="none">
    <path d="M160,160 Q180,140 200,160 Q220,140 240,160" opacity="0.7"/>
    <path d="M160,190 Q180,210 200,190 Q220,210 240,190" opacity="0.7"/>
    <path d="M160,160 Q140,180 160,200 Q140,220 160,240" opacity="0.7"/>
    <path d="M190,160 Q210,180 190,200 Q210,220 190,240" opacity="0.7"/>
    
    <!-- Diagonal tech lines -->
    <line x1="120" y1="120" x2="140" y2="140" opacity="0.5"/>
    <line x1="230" y1="120" x2="210" y2="140" opacity="0.5"/>
    <line x1="120" y1="230" x2="140" y2="210" opacity="0.5"/>
    <line x1="230" y1="230" x2="210" y2="210" opacity="0.5"/>
  </g>
  
  <!-- Cosmic stars and particles -->
  <g fill="url(#starGlow)">
    <circle cx="50" cy="80" r="1.5"/>
    <circle cx="300" cy="60" r="1.2"/>
    <circle cx="80" cy="270" r="1.8"/>
    <circle cx="270" cy="290" r="1.1"/>
    <circle cx="175" cy="40" r="0.8"/>
    <circle cx="175" cy="310" r="1.4"/>
    <circle cx="40" cy="175" r="1.0"/>
    <circle cx="310" cy="175" r="1.3"/>
    <circle cx="120" cy="100" r="0.6"/>
    <circle cx="250" cy="120" r="0.9"/>
    <circle cx="100" cy="250" r="1.1"/>
    <circle cx="270" cy="220" r="0.7"/>
  </g>
  
  <!-- Tech hexagonal accents -->
  <g fill="url(#circuitGlow)" opacity="0.4">
    <polygon points="90,90 95,85 105,85 110,90 105,95 95,95"/>
    <polygon points="245,90 250,85 260,85 265,90 260,95 250,95"/>
    <polygon points="90,260 95,255 105,255 110,260 105,265 95,265"/>
    <polygon points="245,260 250,255 260,255 265,260 260,265 250,265"/>
  </g>
  
  <!-- Energy pulse lines -->
  <g stroke="url(#circuitGlow)" stroke-width="0.3" fill="none" opacity="0.3">
    <path d="M50,50 Q175,100 300,50"/>
    <path d="M50,300 Q175,250 300,300"/>
    <path d="M50,50 Q100,175 50,300"/>
    <path d="M300,50 Q250,175 300,300"/>
  </g>
</svg>