<svg width="400" height="400" xmlns="http://www.w3.org/2000/svg">
  <defs>
    <!-- Enhanced gradient definitions for sci-fi Persian motifs -->
    <linearGradient id="goldToCyanGradient" x1="0%" y1="0%" x2="100%" y2="100%">
      <stop offset="0%" stop-color="#FFD700" stop-opacity="0.8"/>
      <stop offset="30%" stop-color="#00E6FF" stop-opacity="0.6"/>
      <stop offset="60%" stop-color="#6A11CB" stop-opacity="0.7"/>
      <stop offset="100%" stop-color="#FF6EC7" stop-opacity="0.5"/>
    </linearGradient>
    
    <radialGradient id="cosmicGlow" cx="50%" cy="50%" r="50%">
      <stop offset="0%" stop-color="#4FC3F7" stop-opacity="0.6"/>
      <stop offset="50%" stop-color="#AB47BC" stop-opacity="0.4"/>
      <stop offset="100%" stop-color="#FFB74D" stop-opacity="0.3"/>
    </radialGradient>
    
    <linearGradient id="techLine" x1="0%" y1="0%" x2="100%" y2="0%">
      <stop offset="0%" stop-color="#00E6FF" stop-opacity="0"/>
      <stop offset="50%" stop-color="#00E6FF" stop-opacity="0.7"/>
      <stop offset="100%" stop-color="#00E6FF" stop-opacity="0"/>
    </linearGradient>
    
    <!-- Persian ornament pattern with sci-fi enhancement -->
    <g id="persianMotif">
      <!-- Central Persian medallion with cosmic elements -->
      <path d="M200,80 Q240,60 280,80 Q300,120 280,160 Q240,180 200,160 Q180,120 200,80 Z" 
            fill="url(#goldToCyanGradient)" 
            stroke="url(#cosmicGlow)" 
            stroke-width="1" 
            opacity="0.4"/>
      
      <!-- Inner ornamental core -->
      <circle cx="240" cy="120" r="20" fill="url(#cosmicGlow)" opacity="0.3"/>
      <circle cx="240" cy="120" r="8" fill="url(#goldToCyanGradient)" opacity="0.6"/>
      
      <!-- Flowing Persian curves with tech elements -->
      <path d="M210,100 Q230,90 250,100 Q270,120 250,140 Q230,150 210,140 Q190,120 210,100" 
            fill="none" 
            stroke="url(#goldToCyanGradient)" 
            stroke-width="1.5" 
            opacity="0.5"/>
      
      <!-- Decorative Persian flourishes -->
      <path d="M220,105 Q240,100 260,105 M220,120 Q240,115 260,120 M220,135 Q240,130 260,135" 
            fill="none" 
            stroke="url(#cosmicGlow)" 
            stroke-width="0.8" 
            opacity="0.4"/>
      
      <!-- Sci-fi geometric accents -->
      <polygon points="230,110 250,110 245,125 235,125" 
               fill="url(#goldToCyanGradient)" 
               opacity="0.3"/>
      
      <!-- Tech circuit lines -->
      <path d="M180,120 L200,120 M280,120 L300,120" 
            stroke="url(#techLine)" 
            stroke-width="1" 
            opacity="0.5"/>
      
      <!-- Corner ornaments with cosmic touch -->
      <g transform="translate(180,100)">
        <path d="M0,0 Q15,-8 30,0 Q22,15 15,30 Q0,22 -15,15 Q-8,0 0,0" 
              fill="url(#cosmicGlow)" 
              opacity="0.25"/>
        <circle cx="15" cy="15" r="2" fill="url(#goldToCyanGradient)" opacity="0.6"/>
      </g>
      
      <g transform="translate(300,100)">
        <path d="M0,0 Q-15,-8 -30,0 Q-22,15 -15,30 Q0,22 15,15 Q8,0 0,0" 
              fill="url(#cosmicGlow)" 
              opacity="0.25"/>
        <circle cx="-15" cy="15" r="2" fill="url(#goldToCyanGradient)" opacity="0.6"/>
      </g>
      
      <g transform="translate(180,140)">
        <path d="M0,0 Q15,8 30,0 Q22,-15 15,-30 Q0,-22 -15,-15 Q-8,0 0,0" 
              fill="url(#cosmicGlow)" 
              opacity="0.25"/>
        <circle cx="15" cy="-15" r="2" fill="url(#goldToCyanGradient)" opacity="0.6"/>
      </g>
      
      <g transform="translate(300,140)">
        <path d="M0,0 Q-15,8 -30,0 Q-22,-15 -15,-30 Q0,-22 15,-15 Q8,0 0,0" 
              fill="url(#cosmicGlow)" 
              opacity="0.25"/>
        <circle cx="-15" cy="-15" r="2" fill="url(#goldToCyanGradient)" opacity="0.6"/>
      </g>
    </g>
    
    <!-- Smaller connecting motifs -->
    <g id="connector">
      <path d="M50,40 Q100,30 150,40 Q140,60 100,70 Q80,60 50,40" 
            fill="url(#goldToCyanGradient)" 
            opacity="0.3"/>
      <circle cx="100" cy="50" r="4" fill="url(#cosmicGlow)" opacity="0.5"/>
      <!-- Tech hexagon -->
      <polygon points="90,45 95,42 105,42 110,45 105,48 95,48" 
               fill="url(#techLine)" 
               opacity="0.4"/>
    </g>
    
    <!-- Cosmic star field -->
    <g id="stars">
      <circle cx="80" cy="160" r="1.5" fill="#FFD700" opacity="0.8"/>
      <circle cx="350" cy="180" r="1" fill="#00E6FF" opacity="0.7"/>
      <circle cx="280" cy="50" r="1" fill="#FF6EC7" opacity="0.6"/>
      <circle cx="320" cy="350" r="1.5" fill="#6A11CB" opacity="0.7"/>
      <circle cx="120" cy="320" r="1" fill="#4FC3F7" opacity="0.8"/>
      <circle cx="60" cy="250" r="1" fill="#AB47BC" opacity="0.6"/>
      <circle cx="380" cy="80" r="1" fill="#FFB74D" opacity="0.7"/>
    </g>
    
    <!-- Nebula effect -->
    <g id="nebula">
      <ellipse cx="150" cy="300" rx="40" ry="20" 
               fill="url(#cosmicGlow)" 
               opacity="0.15" 
               transform="rotate(25 150 300)"/>
      <ellipse cx="320" cy="100" rx="30" ry="15" 
               fill="url(#goldToCyanGradient)" 
               opacity="0.1" 
               transform="rotate(-15 320 100)"/>
    </g>
  </defs>
  
  <!-- Transparent background -->
  <rect width="400" height="400" fill="transparent"/>
  
  <!-- Nebula background layer -->
  <use href="#nebula"/>
  
  <!-- Main pattern repetition -->
  <use href="#persianMotif" transform="translate(-40,-40)"/>
  <use href="#persianMotif" transform="translate(160,-40)"/>
  <use href="#persianMotif" transform="translate(-40,160)"/>
  <use href="#persianMotif" transform="translate(160,160)"/>
  
  <!-- Connecting elements -->
  <use href="#connector" transform="translate(100,-10)"/>
  <use href="#connector" transform="translate(100,190)"/>
  <use href="#connector" transform="translate(-50,100) rotate(90 100 50)"/>
  <use href="#connector" transform="translate(150,100) rotate(90 100 50)"/>
  
  <!-- Cosmic elements -->
  <use href="#stars"/>
  
  <!-- Tech grid overlay -->
  <g opacity="0.15">
    <path d="M200,0 L200,400" stroke="url(#techLine)" stroke-width="0.5" stroke-dasharray="4,12"/>
    <path d="M0,200 L400,200" stroke="url(#techLine)" stroke-width="0.5" stroke-dasharray="4,12"/>
  </g>
  
  <!-- Additional hexagonal tech elements -->
  <g opacity="0.2">
    <polygon points="320,140 330,125 340,140 330,155" fill="url(#goldToCyanGradient)"/>
    <polygon points="80,340 90,325 100,340 90,355" fill="url(#cosmicGlow)"/>
    <polygon points="360,280 370,265 380,280 370,295" fill="url(#techLine)"/>
  </g>
  
  <!-- Subtle energy streams -->
  <g opacity="0.1">
    <path d="M0,100 Q100,80 200,100 Q300,120 400,100" 
          stroke="url(#goldToCyanGradient)" 
          stroke-width="2" 
          fill="none"/>
    <path d="M0,300 Q100,280 200,300 Q300,320 400,300" 
          stroke="url(#cosmicGlow)" 
          stroke-width="2" 
          fill="none"/>
  </g>
</svg>