<svg width="400" height="400" xmlns="http://www.w3.org/2000/svg">
  <defs>
    <!-- Persian Motif Gradients -->
    <linearGradient id="darkGold" x1="0%" y1="0%" x2="100%" y2="100%">
      <stop offset="0%" stop-color="#ffd700" stop-opacity="0.15"/>
      <stop offset="30%" stop-color="#00c9ff" stop-opacity="0.12"/>
      <stop offset="70%" stop-color="#6a11cb" stop-opacity="0.08"/>
      <stop offset="100%" stop-color="#ff6ec7" stop-opacity="0.06"/>
    </linearGradient>
    
    <!-- Subtle Circuit Lines -->
    <linearGradient id="circuitGlow" x1="0%" y1="0%" x2="100%" y2="0%">
      <stop offset="0%" stop-color="#00c9ff" stop-opacity="0.05"/>
      <stop offset="50%" stop-color="#ffd700" stop-opacity="0.08"/>
      <stop offset="100%" stop-color="#00c9ff" stop-opacity="0.05"/>
    </linearGradient>
    
    <!-- Star Glow -->
    <radialGradient id="starGlow">
      <stop offset="0%" stop-color="#ffffff" stop-opacity="0.8"/>
      <stop offset="50%" stop-color="#00c9ff" stop-opacity="0.3"/>
      <stop offset="100%" stop-color="#6a11cb" stop-opacity="0.0"/>
    </radialGradient>
    
    <!-- Reusable Persian Motif -->
    <g id="persianMotif">
      <!-- Central floral crown -->
      <path d="M0,-20 Q-8,-15 -12,-8 Q-15,0 -12,8 Q-8,15 0,20 Q8,15 12,8 Q15,0 12,-8 Q8,-15 0,-20" 
            fill="url(#darkGold)" stroke="url(#circuitGlow)" stroke-width="0.5"/>
      
      <!-- Ornate flourishes -->
      <path d="M-15,-10 Q-25,-5 -20,5 Q-15,10 -10,5 Q-12,0 -15,-10" fill="url(#darkGold)"/>
      <path d="M15,-10 Q25,-5 20,5 Q15,10 10,5 Q12,0 15,-10" fill="url(#darkGold)"/>
      <path d="M-10,-15 Q-5,-25 5,-20 Q10,-15 5,-10 Q0,-12 -10,-15" fill="url(#darkGold)"/>
      <path d="M-10,15 Q-5,25 5,20 Q10,15 5,10 Q0,12 -10,15" fill="url(#darkGold)"/>
      
      <!-- Tech accents - subtle hexagons -->
      <polygon points="-3,-8 0,-10 3,-8 3,-4 0,-2 -3,-4" fill="url(#circuitGlow)" opacity="0.3"/>
      <polygon points="-3,8 0,10 3,8 3,4 0,2 -3,4" fill="url(#circuitGlow)" opacity="0.3"/>
    </g>
  </defs>
  
  <!-- Background base -->
  <rect width="400" height="400" fill="#0b0612"/>
  
  <!-- Cosmic gradient overlay -->
  <rect width="400" height="400" fill="url(#cosmicGradient)"/>
  
  <defs>
    <radialGradient id="cosmicGradient" cx="50%" cy="30%" r="70%">
      <stop offset="0%" stop-color="#1a0f2e" stop-opacity="0.8"/>
      <stop offset="40%" stop-color="#2d1b69" stop-opacity="0.6"/>
      <stop offset="80%" stop-color="#0b0612" stop-opacity="0.9"/>
    </radialGradient>
  </defs>
  
  <!-- Scattered stars -->
  <circle cx="50" cy="80" r="1" fill="url(#starGlow)"/>
  <circle cx="150" cy="40" r="0.8" fill="url(#starGlow)"/>
  <circle cx="250" cy="120" r="1.2" fill="url(#starGlow)"/>
  <circle cx="350" cy="60" r="0.6" fill="url(#starGlow)"/>
  <circle cx="80" cy="200" r="0.9" fill="url(#starGlow)"/>
  <circle cx="180" cy="160" r="1.1" fill="url(#starGlow)"/>
  <circle cx="280" cy="240" r="0.7" fill="url(#starGlow)"/>
  <circle cx="380" cy="180" r="1" fill="url(#starGlow)"/>
  <circle cx="120" cy="320" r="0.8" fill="url(#starGlow)"/>
  <circle cx="220" cy="280" r="1.3" fill="url(#starGlow)"/>
  <circle cx="320" cy="360" r="0.5" fill="url(#starGlow)"/>
  <circle cx="20" cy="300" r="0.9" fill="url(#starGlow)"/>
  
  <!-- Persian motifs in grid pattern -->
  <g transform="translate(100,100)">
    <use href="#persianMotif"/>
  </g>
  <g transform="translate(300,100)">
    <use href="#persianMotif" transform="rotate(45)"/>
  </g>
  <g transform="translate(100,300)">
    <use href="#persianMotif" transform="rotate(-30)"/>
  </g>
  <g transform="translate(300,300)">
    <use href="#persianMotif" transform="rotate(60)"/>
  </g>
  <g transform="translate(200,200)">
    <use href="#persianMotif" transform="scale(0.7)"/>
  </g>
  
  <!-- Subtle connecting lines (circuit-like) -->
  <path d="M100,100 Q150,120 200,100 Q250,80 300,100" 
        stroke="url(#circuitGlow)" stroke-width="0.5" fill="none" opacity="0.3"/>
  <path d="M100,300 Q150,280 200,300 Q250,320 300,300" 
        stroke="url(#circuitGlow)" stroke-width="0.5" fill="none" opacity="0.3"/>
  <path d="M100,100 Q120,150 100,200 Q80,250 100,300" 
        stroke="url(#circuitGlow)" stroke-width="0.5" fill="none" opacity="0.3"/>
  <path d="M300,100 Q280,150 300,200 Q320,250 300,300" 
        stroke="url(#circuitGlow)" stroke-width="0.5" fill="none" opacity="0.3"/>
</svg>